<svg width="40" height="40" viewBox="0 0 40 40" fill="none" xmlns="http://www.w3.org/2000/svg">
<path d="M23.6349 28.5335C24.3541 30.0196 24.7899 31.639 24.8787 33.2837V33.2903C24.9596 35.2806 24.6129 37.2272 23.5866 39.0845C23.2125 39.0668 22.8342 39.033 22.4518 38.986C22.4529 38.9841 22.4541 38.9821 22.4552 38.9803L22.4602 38.9738C23.5497 37.1928 23.9231 35.3087 23.8429 33.3318C23.7571 31.7571 23.3215 30.2015 22.6033 28.7811C22.9443 28.7059 23.2889 28.6235 23.6349 28.5335Z" fill="#EEF2FF"/>
<path d="M24.6848 28.2371C25.5249 29.4899 26.1488 30.8834 26.4943 32.3448L26.5842 32.7577L26.5858 32.7642C26.968 34.8271 26.8718 36.9057 26.0035 38.9892C25.6414 39.0357 25.2739 39.0677 24.9011 39.0845C24.9102 39.0571 24.9192 39.0297 24.9286 39.0023L24.9302 38.9949C24.9307 38.9914 24.9321 38.9865 24.9327 38.9811C24.937 38.9459 24.9478 38.8424 24.9943 38.7295L25.1441 38.363C25.8337 36.5714 25.9028 34.7748 25.5659 32.9515C25.2515 31.3718 24.5796 29.8616 23.6374 28.5327C23.9858 28.4421 24.3357 28.3438 24.6848 28.2371Z" fill="#EEF2FF"/>
<path d="M22.585 28.7852C23.066 30.3295 23.2599 31.9611 23.1166 33.572L23.1157 33.5785C22.9267 35.4268 22.3742 37.1866 21.2621 38.7938C20.9027 38.7222 20.5405 38.6378 20.1756 38.5405C21.3272 37.0125 21.8942 35.315 22.0825 33.4841L22.1107 33.0973C22.1839 31.7146 21.9902 30.3179 21.565 28.9904C21.8998 28.9288 22.2406 28.8608 22.585 28.7852Z" fill="#EEF2FF"/>
<path d="M25.7339 27.856C26.716 28.9662 27.512 30.2358 28.0509 31.6078L28.1982 32.0052L28.2007 32.0117C28.8825 34.0327 29.0813 36.1374 28.4852 38.3557C28.4852 38.3594 28.485 38.365 28.4852 38.3711C28.4854 38.3816 28.4846 38.3978 28.4843 38.4184C28.219 38.5078 27.9502 38.5908 27.6765 38.6627C27.5826 38.6879 27.4876 38.7096 27.3928 38.7327C27.4094 38.6268 27.4274 38.5202 27.4477 38.4135V38.4078C27.4478 38.4041 27.4487 38.399 27.4486 38.3931C27.4477 38.358 27.4428 38.254 27.4727 38.1358L27.4752 38.126C28.0202 36.122 27.8495 34.2125 27.2173 32.3358C26.6833 30.8198 25.8084 29.4196 24.6923 28.2346C24.7315 28.2226 24.7712 28.2118 24.8104 28.1996C25.1346 28.1007 25.4423 27.985 25.7339 27.856Z" fill="#EEF2FF"/>
<path d="M21.5142 28.9993C21.7374 30.5329 21.6846 32.1058 21.3287 33.6176L21.3262 33.6242C20.9104 35.291 20.1989 36.8407 19.045 38.2026C18.6907 38.0875 18.3383 37.9691 17.9884 37.8475C19.1788 36.5547 19.9016 35.0522 20.317 33.3904C20.6414 32.0128 20.6925 30.5738 20.4909 29.1671C20.556 29.1578 20.6216 29.15 20.6873 29.1402C20.958 29.0983 21.2338 29.0504 21.5142 28.9993Z" fill="#EEF2FF"/>
<path d="M26.7239 27.3225C27.8261 28.2767 28.7714 29.4066 29.486 30.6672L29.689 31.0393L29.6915 31.0458C30.6547 32.9552 31.1513 35.0131 30.8754 37.2921C30.8759 37.2955 30.877 37.3 30.8779 37.3051C30.8788 37.3107 30.879 37.3182 30.8804 37.3271C30.5451 37.522 30.2002 37.703 29.8463 37.8695C29.8471 37.7434 29.8504 37.6162 29.8562 37.4883L29.8554 37.481C29.8549 37.4776 29.8546 37.4723 29.8537 37.4672C29.8478 37.4318 29.8283 37.3292 29.8413 37.2082L29.8429 37.2009L29.882 36.8165C30.0406 34.9086 29.6019 33.1627 28.7647 31.5011L28.5792 31.159C27.8641 29.8978 26.8962 28.7728 25.758 27.8454C26.1039 27.6909 26.4259 27.5159 26.7239 27.3225Z" fill="#EEF2FF"/>
<path d="M20.3903 29.1818C20.358 30.627 20.082 32.0673 19.5525 33.4189L19.55 33.4254C18.9381 34.9292 18.0793 36.293 16.8619 37.4427C16.5002 37.3085 16.1416 37.1712 15.7862 37.0315C17.0726 35.9331 17.961 34.5851 18.5857 33.05C19.0523 31.8573 19.3037 30.585 19.3478 29.3031C19.6858 29.2731 20.0331 29.2313 20.3903 29.1818Z" fill="#EEF2FF"/>
<path d="M19.1756 29.3169C18.9189 30.5964 18.4682 31.8386 17.822 32.9808L17.8179 32.9865C17.0078 34.3754 15.9796 35.5974 14.6348 36.5649C14.2565 36.4073 13.8831 36.2463 13.5141 36.0844C14.9763 35.1675 16.0674 33.9396 16.9168 32.4832C17.4678 31.5081 17.8664 30.4506 18.109 29.3577C18.4535 29.36 18.8088 29.3456 19.1756 29.3169Z" fill="#EEF2FF"/>
<path d="M27.6058 26.6311C28.8157 27.421 29.8972 28.401 30.7739 29.5384L31.0268 29.8805L31.031 29.8854C32.2276 31.6037 33.0011 33.5237 33.0842 35.7497C32.7807 36.0122 32.465 36.2635 32.1383 36.503C32.1276 36.4172 32.1185 36.3309 32.11 36.244L32.1092 36.2367C32.1082 36.2334 32.1066 36.2286 32.105 36.2236C32.0944 36.1903 32.0606 36.0912 32.0559 35.9695V35.9606C32.0158 33.8869 31.3138 32.0964 30.1774 30.4628L29.9453 30.15C29.0759 29.0222 27.9855 28.0563 26.758 27.2997C27.0677 27.0961 27.3507 26.8729 27.6058 26.6311Z" fill="#EEF2FF"/>
<path d="M17.1481 29.3023C17.3765 29.3294 17.6103 29.344 17.8495 29.352C17.428 30.4058 16.8669 31.4061 16.1706 32.3114L16.1664 32.3171C15.1192 33.6424 13.8591 34.7504 12.292 35.5322C11.8825 35.3426 11.48 35.1518 11.0857 34.9597C12.8441 34.2574 14.2154 33.1268 15.3461 31.6957C15.9236 30.944 16.4 30.1185 16.7729 29.2485C16.8963 29.2694 17.0213 29.2877 17.1481 29.3023Z" fill="#EEF2FF"/>
<path d="M28.3321 25.7948C29.645 26.4124 30.8572 27.2366 31.8887 28.2452L32.1882 28.5498L32.1924 28.5539C33.5528 30.0184 34.5606 31.716 34.9986 33.7675C34.7364 34.0924 34.4602 34.4093 34.1691 34.7162C34.1681 34.712 34.1668 34.7075 34.1658 34.7032L34.1649 34.6991C34.1633 34.6956 34.1605 34.6908 34.1574 34.6845C34.142 34.6524 34.0952 34.5586 34.0734 34.4385L34.0718 34.4304C33.7373 32.3822 32.7879 30.7049 31.4303 29.242L31.1549 28.9635C30.1463 27.9773 28.9467 27.1763 27.6424 26.5961C27.8016 26.4426 27.9507 26.2828 28.0875 26.1156C28.1738 26.0114 28.2546 25.9039 28.3321 25.7948Z" fill="#EEF2FF"/>
<path d="M15.4168 28.8576C15.7408 28.9937 16.08 29.1018 16.4351 29.1809C15.9227 29.9915 15.3192 30.7467 14.6298 31.4221L14.6256 31.427C13.2531 32.7374 11.6551 33.7444 9.72126 34.2716C9.2773 34.0387 8.84582 33.8036 8.42674 33.5663C8.42917 33.5652 8.4322 33.5645 8.43506 33.5631C8.46704 33.5469 8.56166 33.4965 8.68382 33.4711L8.69213 33.4702C10.7713 33.0715 12.4499 32.0831 13.896 30.7038C14.4675 30.144 14.9758 29.523 15.4168 28.8576Z" fill="#EEF2FF"/>
<path d="M14.3386 28.2574C14.5645 28.4204 14.8022 28.5626 15.0491 28.6882C14.4998 29.2919 13.8925 29.8449 13.2321 30.3325L13.2263 30.3365C11.4726 31.5965 9.48791 32.4322 7.14719 32.5622C7.14402 32.5633 7.13934 32.5655 7.13471 32.5671C7.10306 32.578 7.016 32.6075 6.90593 32.6192L6.90676 32.6208C6.89259 32.6227 6.87846 32.6247 6.86433 32.6265C6.45151 32.3615 6.05443 32.0917 5.67463 31.8146C6.03073 31.7293 6.39623 31.6624 6.77281 31.6143L6.77697 31.6126C6.78068 31.6115 6.78654 31.6107 6.79278 31.6086C6.82729 31.5967 6.92789 31.5601 7.05235 31.5516L7.06067 31.5508C9.17828 31.4389 10.9828 30.6887 12.6123 29.5181C13.1735 29.1034 13.6932 28.6357 14.1689 28.1271C14.2254 28.1709 14.2806 28.2161 14.3386 28.2574Z" fill="#EEF2FF"/>
<path d="M28.8745 24.8493C30.4234 25.324 31.8862 26.0733 33.15 27.0742L33.1549 27.0782L33.4653 27.3388C34.7773 28.4696 35.8411 29.8175 36.5277 31.4807C36.3169 31.8682 36.0883 32.2477 35.8422 32.6184C35.2171 30.6449 34.0406 29.1196 32.4919 27.86C31.2794 26.901 29.8624 26.19 28.3596 25.7573C28.5611 25.4684 28.7311 25.1635 28.8745 24.8493Z" fill="#EEF2FF"/>
<path d="M13.1389 27.0888C13.3395 27.3535 13.5743 27.6106 13.8336 27.8462C13.2606 28.3026 12.6479 28.7115 12.0008 29.0629L11.995 29.0661C10.0795 30.0749 7.99558 30.6324 5.65966 30.4424C5.65615 30.443 5.65174 30.4438 5.64635 30.4448C5.61415 30.4511 5.52345 30.4693 5.41257 30.466C4.96994 30.4617 4.53886 30.4904 4.11555 30.5458C3.80279 30.2611 3.50675 29.9683 3.22785 29.6671C3.84646 29.5402 4.4803 29.4652 5.13885 29.4538L5.42338 29.4521L5.42754 29.4513C5.43141 29.4506 5.43668 29.4502 5.44335 29.4489C5.47845 29.442 5.58267 29.4194 5.70708 29.4277L5.71623 29.4293C7.82667 29.607 9.71836 29.1104 11.4967 28.1752C12.0748 27.8612 12.6234 27.4958 13.1389 27.0888Z" fill="#EEF2FF"/>
<path d="M29.2331 23.8444C30.7307 24.0745 32.1901 24.5509 33.5177 25.2703L33.8912 25.4812L33.897 25.4853C35.3714 26.3774 36.644 27.5037 37.6067 28.9741C37.4713 29.3919 37.3162 29.8035 37.1433 30.2087C36.2458 28.5447 34.9442 27.3131 33.3571 26.3518C31.998 25.5532 30.466 25.0383 28.8887 24.82C29.0314 24.5027 29.1451 24.1757 29.2331 23.8444Z" fill="#EEF2FF"/>
<path d="M12.4551 25.7899C12.4921 25.9065 12.5359 26.0254 12.589 26.1474C12.6636 26.3355 12.7631 26.5286 12.8827 26.7215C12.2704 27.0783 11.6287 27.3871 10.9625 27.6377L10.9567 27.6401C8.91612 28.3783 6.77255 28.6468 4.48577 28.1402C4.48234 28.1403 4.47727 28.1407 4.47246 28.141C4.43849 28.1429 4.34709 28.1479 4.23868 28.1296C3.46631 28.0159 2.71601 28.0062 1.96827 28.0775C1.75986 27.7657 1.567 27.4467 1.3909 27.1198C2.37046 26.9842 3.36172 26.9746 4.39259 27.1263L4.40008 27.1279C4.40351 27.1278 4.40818 27.1274 4.41339 27.1271C4.44 27.1256 4.50745 27.1206 4.5906 27.1287L4.67795 27.1417L4.6871 27.1442C6.75238 27.6077 8.69651 27.3739 10.5907 26.6898L10.9567 26.5448C11.4737 26.3297 11.9745 26.0766 12.4551 25.7899Z" fill="#EEF2FF"/>
<path d="M28.4236 1.57371C28.7347 1.71229 29.0425 1.86928 29.3463 2.04849C28.9139 2.70028 28.4066 3.30852 27.7988 3.87187L27.7947 3.87431C27.8038 3.86455 27.8033 3.86308 27.7855 3.88815C27.7647 3.91756 27.706 4.00446 27.6108 4.08279L27.6041 4.08849C25.9597 5.39602 24.9499 7.03883 24.3346 8.92098C23.8529 10.4655 23.7216 12.1142 23.9194 13.7258C23.9953 12.0775 24.3878 10.4409 25.1008 8.94296L25.1033 8.93726C26.0475 7.01858 27.3988 5.36775 29.4037 4.17726C29.4059 4.17493 29.4097 4.17245 29.4128 4.16911C29.4352 4.14538 29.4963 4.07773 29.5875 4.01682L29.793 3.86942C30.1363 3.61611 30.4519 3.34352 30.7473 3.05424C30.8064 3.10475 30.8665 3.15487 30.9253 3.20734C31.1179 3.37979 31.3077 3.56414 31.496 3.75867C31.1002 4.14757 30.6678 4.50997 30.189 4.84341L30.1832 4.84748C30.1951 4.83805 30.1958 4.83428 30.174 4.85726C30.1495 4.8832 30.0781 4.96165 29.9719 5.02665L29.9652 5.03153C28.1487 6.10361 26.9148 7.59523 26.0376 9.37784C25.3418 10.8421 24.9778 12.4572 24.9452 14.08C25.2544 12.4559 25.8762 10.8873 26.7963 9.49918L26.7988 9.49429C28.0066 7.72311 29.5798 6.27289 31.734 5.36705C31.7367 5.36494 31.7408 5.3621 31.7448 5.35891C31.7703 5.33849 31.8404 5.28058 31.9395 5.23268C32.1316 5.13504 32.317 5.0306 32.4977 4.92241C32.7007 5.18635 32.8998 5.46416 33.0959 5.7547C32.8775 5.88742 32.6521 6.01432 32.4178 6.13338L32.412 6.13501C32.4249 6.12742 32.4255 6.1247 32.4004 6.14478C32.3722 6.16734 32.2912 6.23584 32.1766 6.28567L32.1691 6.28811C30.2179 7.10224 28.7847 8.41197 27.6624 10.0578C26.7658 11.4122 26.1754 12.96 25.9119 14.5613C26.4491 12.9963 27.2875 11.5285 28.3953 10.2802L28.3995 10.2761C29.8315 8.7039 31.5723 7.49116 33.7989 6.88097C33.9679 7.17256 34.134 7.47434 34.2964 7.78655C34.2624 7.80161 34.2237 7.81844 34.1807 7.83053L34.1724 7.83297C32.1248 8.37323 30.5193 9.47433 29.174 10.9512C28.0928 12.1711 27.2879 13.625 26.7996 15.1762C27.554 13.6983 28.5932 12.3573 29.8687 11.2713L29.8745 11.268C31.2937 10.0908 32.9031 9.21186 34.7939 8.80045C34.9372 9.1089 35.078 9.42553 35.2149 9.75082C33.4282 10.1016 31.907 10.9128 30.5451 12.0425C29.3025 13.1018 28.299 14.4296 27.595 15.8969C28.5519 14.5386 29.771 13.3551 31.1865 12.4545L31.1915 12.4513C32.5467 11.6133 34.0107 11.0136 35.625 10.768C35.7478 11.0869 35.8665 11.4128 35.9828 11.7436C34.4492 11.9446 33.0555 12.5002 31.7464 13.3096C30.3662 14.1888 29.1852 15.3664 28.2797 16.7227C29.4198 15.5088 30.794 14.5034 32.323 13.8048L32.3288 13.8015C33.6002 13.2402 34.9276 12.8697 36.3272 12.7673C36.4331 13.0971 36.5352 13.4307 36.6342 13.7665C35.2858 13.8333 34.0025 14.1782 32.7564 14.7283C31.263 15.4116 29.9241 16.4176 28.8338 17.6388C30.1364 16.5904 31.6421 15.7806 33.2573 15.2967L33.2639 15.2959C34.4607 14.9537 35.6798 14.7679 36.9254 14.7959C37.0175 15.1371 37.1057 15.4793 37.1899 15.8212C35.9646 15.757 34.7583 15.9251 33.5593 16.2674C31.9809 16.7404 30.5112 17.5563 29.2564 18.6185C30.6955 17.7579 32.3021 17.1611 33.9703 16.9018L33.9769 16.901C35.131 16.7367 36.2849 16.711 37.4354 16.8701C37.515 17.2273 37.5907 17.5825 37.6608 17.9345C36.4985 17.7282 35.323 17.735 34.1308 17.9043C32.5017 18.1576 30.9313 18.7647 29.5384 19.6446C31.0851 18.9891 32.7592 18.6178 34.447 18.5884H34.4536C35.6132 18.5829 36.7532 18.7138 37.8638 19.0241C37.9297 19.4033 37.9889 19.7764 38.0418 20.1414C36.8921 19.7581 35.6967 19.5981 34.4594 19.6039C32.8105 19.6336 31.1688 20.02 29.6649 20.7025C31.1523 20.3007 32.7118 20.1482 34.2506 20.279L34.6799 20.323L34.6866 20.3238C35.9008 20.485 37.0726 20.7928 38.1816 21.2986C38.2236 21.7078 38.2569 22.1031 38.2815 22.486C37.1249 21.8688 35.8775 21.5067 34.5543 21.3304C32.9162 21.1343 31.2341 21.294 29.6466 21.7644C31.176 21.5694 32.7419 21.632 34.2465 21.9713L34.6649 22.0723L34.6716 22.0747C35.982 22.4357 37.2139 22.969 38.3314 23.7401C38.3373 24.1751 38.3297 24.5943 38.3097 25.0008C37.1554 24.0676 35.8364 23.4505 34.3896 23.052C32.7962 22.6357 31.1087 22.5656 29.471 22.8158C31.0141 22.8307 32.5562 23.1046 33.9985 23.6456L34.3996 23.8036L34.4054 23.8061C35.8223 24.4153 37.106 25.2325 38.1924 26.3437C38.1353 26.7836 38.0604 27.2107 37.9686 27.6296C36.8914 26.3261 35.5437 25.4056 33.9944 24.7385L33.6275 24.5936C32.235 24.0713 30.7358 23.8178 29.2373 23.8297C29.3135 23.5402 29.371 23.2479 29.4087 22.9559C29.5498 21.8366 29.4198 20.7262 29.0384 19.7025C28.6471 18.6629 28.0038 17.7102 26.8887 16.5427C25.8532 15.4829 24.4537 14.3167 23.1424 13.4977C23.0397 13.433 22.9361 13.3727 22.8345 13.3121C22.7079 11.7369 22.8709 10.138 23.3429 8.62454L23.3454 8.61884C24.0075 6.59024 25.1101 4.77092 26.9261 3.31891C26.928 3.31629 26.9309 3.3129 26.9336 3.30913C26.9524 3.28258 27.004 3.20771 27.0858 3.13486L27.268 2.9614C27.709 2.52955 28.0892 2.06736 28.4236 1.57371Z" fill="#EEF2FF"/>
<path d="M12.3028 24.2695C12.2814 24.6484 12.2858 25.0014 12.3511 25.364C11.6381 25.6698 10.8976 25.9143 10.1381 26.0863L10.1314 26.0871C8.00513 26.54 5.8443 26.5142 3.65132 25.7003C3.64816 25.7 3.64403 25.6999 3.63967 25.6995C3.60664 25.6968 3.51468 25.6902 3.40922 25.6571C2.47312 25.3847 1.5487 25.2743 0.603035 25.2866C0.601429 25.2817 0.599643 25.2768 0.598044 25.2719C0.489207 24.9462 0.396841 24.6132 0.317675 24.2776C1.3573 24.2408 2.38604 24.3363 3.43085 24.6099L3.70456 24.6856L3.71039 24.6864C3.71411 24.6868 3.71922 24.6875 3.72536 24.688C3.75209 24.6902 3.81964 24.6937 3.90091 24.7133L3.9866 24.7393L3.99408 24.7418C5.97326 25.4823 7.93101 25.5162 9.90429 25.0969L10.2887 25.0024C10.9807 24.8204 11.6549 24.5731 12.3028 24.2695Z" fill="#EEF2FF"/>
<path d="M0.00402748 21.3019C1.06355 21.4033 2.09219 21.6375 3.11055 22.0601L3.37012 22.1724L3.37428 22.1741C3.37816 22.175 3.38405 22.1758 3.39092 22.1773C3.42607 22.1851 3.53038 22.2064 3.6405 22.2637L3.64882 22.2685C5.50319 23.2709 7.43696 23.5698 9.45005 23.4233C10.4739 23.3352 11.4853 23.1086 12.4534 22.7612C12.4105 23.1266 12.3709 23.4704 12.3378 23.789C12.3352 23.8188 12.3327 23.8484 12.3303 23.8777C11.4258 24.1641 10.4899 24.3548 9.54156 24.4364H9.53491C7.36556 24.5954 5.23005 24.2755 3.17461 23.1717C3.17131 23.1709 3.16702 23.1695 3.16213 23.1684C3.13008 23.1613 3.03923 23.1424 2.93917 23.0951C1.99122 22.6712 1.03062 22.4311 0.0239944 22.3239C0.00124958 21.9774 -0.00513089 21.6354 0.00402748 21.3019Z" fill="#EEF2FF"/>
<path d="M0.553118 18.4117C1.45443 18.6551 2.31914 19.0015 3.15464 19.4923L3.39674 19.6381L3.40173 19.6414C3.40524 19.6427 3.41016 19.6449 3.41588 19.6471C3.44113 19.6564 3.50418 19.679 3.57644 19.7196L3.65132 19.7668L3.65797 19.7717C5.35278 21.0179 7.2264 21.5785 9.24206 21.7074C10.374 21.7648 11.5143 21.6525 12.6198 21.3898C12.5735 21.7612 12.5292 22.1189 12.4883 22.4599C11.4051 22.6848 10.2931 22.7777 9.18548 22.7213L9.17883 22.7205C7.00733 22.5822 4.93716 21.9741 3.05814 20.5999C3.05537 20.5989 3.05187 20.598 3.04815 20.5966C3.01733 20.5852 2.93014 20.5539 2.83767 20.4932C2.01981 19.9821 1.16783 19.6298 0.261934 19.3865C0.263018 19.3824 0.264171 19.3783 0.265261 19.3743C0.345307 19.0309 0.441488 18.712 0.553118 18.4117Z" fill="#EEF2FF"/>
<path d="M2.0157 15.9474C2.55267 16.2327 3.06932 16.5638 3.56396 16.9556L3.78277 17.1331L3.78693 17.1372C3.79013 17.139 3.79423 17.1417 3.79941 17.1445C3.82323 17.1573 3.88294 17.1885 3.94916 17.239L4.01738 17.2952L4.02237 17.3009C5.5239 18.7661 7.30023 19.5764 9.27866 19.9785C10.4286 20.1963 11.6132 20.2352 12.782 20.1113C12.7499 20.3499 12.7196 20.5869 12.6905 20.8206C12.6768 20.9296 12.6631 21.0377 12.6497 21.1447C11.4585 21.2492 10.2532 21.1977 9.07733 20.9745L9.07067 20.9729C6.93984 20.5401 4.97644 19.6563 3.31105 18.0395C3.30852 18.0381 3.30534 18.0365 3.3019 18.0346C3.27319 18.0192 3.19116 17.9762 3.10805 17.9035C2.57095 17.4535 2.00325 17.0851 1.40171 16.7764C1.59094 16.4947 1.79576 16.2209 2.0157 15.9474Z" fill="#EEF2FF"/>
<path d="M3.77528 13.9611C3.96495 14.1316 4.14956 14.3108 4.32936 14.4994L4.52071 14.7055L4.5257 14.7104C4.52844 14.7124 4.53148 14.7162 4.53569 14.7193C4.55741 14.7351 4.61315 14.7724 4.6713 14.8309L4.72953 14.8968L4.73452 14.9042C6.01336 16.5603 7.65878 17.6049 9.56153 18.2724C10.656 18.6401 11.8086 18.8398 12.9692 18.8791C12.911 19.2155 12.8596 19.5534 12.8128 19.8889C11.5909 19.8365 10.3764 19.62 9.21793 19.2301L9.21128 19.2285C7.16388 18.5103 5.3463 17.3673 3.92753 15.541C3.92469 15.5389 3.92029 15.5361 3.91588 15.5329C3.88928 15.5135 3.81445 15.4601 3.74283 15.3773C3.53022 15.1416 3.30941 14.9211 3.07977 14.7144C3.30306 14.4711 3.53488 14.2196 3.77528 13.9611Z" fill="#EEF2FF"/>
<path d="M5.59726 12.4016L5.60059 12.4065C5.60317 12.4091 5.6065 12.4131 5.61057 12.4171C5.63645 12.4421 5.71374 12.5139 5.77613 12.6199L5.97913 12.9594C6.99797 14.5964 8.40366 15.7572 10.0815 16.6201C11.0678 17.1109 12.1286 17.4559 13.2196 17.6576C13.1403 17.9841 13.0699 18.317 13.0083 18.6527C11.8276 18.4324 10.6775 18.0562 9.60479 17.5216L9.59897 17.5191C7.67316 16.5287 6.03561 15.1491 4.8901 13.1468C4.88769 13.1444 4.88461 13.1414 4.88095 13.1378C4.85773 13.1153 4.79069 13.0519 4.7312 12.9594C4.7288 12.9559 4.7261 12.9524 4.72371 12.9489C4.95861 12.6992 5.19965 12.4443 5.44585 12.1842L5.59726 12.4016Z" fill="#EEF2FF"/>
<path d="M7.13638 10.5057L7.13971 10.5139C7.90187 12.4489 9.1866 13.896 10.8253 15.0508L11.1531 15.2666C11.9113 15.748 12.7291 16.1402 13.5824 16.4401C13.4688 16.7532 13.3679 17.0785 13.2804 17.4124C12.2008 17.0378 11.1712 16.5259 10.2313 15.8822L10.2246 15.879C8.55519 14.7037 7.19052 13.2194 6.32855 11.2542C6.58277 10.9867 6.84102 10.7142 7.10393 10.4382C7.11509 10.4592 7.12639 10.4816 7.13638 10.5057Z" fill="#EEF2FF"/>
<path d="M8.80195 8.66933C9.28849 10.6606 10.3473 12.2499 11.7912 13.6028L12.0848 13.8618C12.7113 14.3942 13.3982 14.8588 14.1273 15.2511C13.9599 15.538 13.8126 15.8459 13.683 16.1697C12.7442 15.6703 11.8669 15.0596 11.084 14.3455L11.079 14.3414C9.66633 13.019 8.56766 11.457 7.96917 9.53338C8.24393 9.24666 8.52058 8.95718 8.80195 8.66933Z" fill="#EEF2FF"/>
<path d="M10.6739 6.85003L10.688 6.93635V6.94368C10.8757 9.00934 11.7035 10.7469 12.9534 12.299C13.5349 13.0013 14.2054 13.6328 14.9418 14.1826C14.8496 14.2833 14.7584 14.3862 14.6672 14.4905C14.5347 14.6429 14.4122 14.8062 14.2978 14.9783C13.5035 14.3833 12.7779 13.7 12.1472 12.9383L12.1431 12.9334C10.9273 11.4251 10.0581 9.72096 9.74206 7.72385C10.0471 7.42208 10.3553 7.1224 10.6672 6.82722C10.6691 6.83472 10.6721 6.84213 10.6739 6.85003Z" fill="#EEF2FF"/>
<path d="M12.7621 4.97045C12.7676 5.06946 12.772 5.16906 12.7745 5.26933L12.7737 5.2734C12.7724 5.26075 12.7717 5.26051 12.7787 5.28969C12.7869 5.32392 12.8131 5.42545 12.8086 5.54784V5.55517C12.7008 7.62878 13.2743 9.46453 14.2937 11.1735C14.7514 11.9176 15.3002 12.6076 15.9202 13.2323C15.6636 13.4475 15.4154 13.6837 15.1731 13.9359C14.4989 13.2562 13.9014 12.5038 13.4018 11.6907L13.3977 11.685C12.3473 9.92389 11.7158 7.99775 11.7629 5.82473C12.0929 5.5326 12.4254 5.2465 12.7621 4.97045Z" fill="#EEF2FF"/>
<path d="M25.6108 0.817969C25.9673 0.85901 26.32 0.917845 26.669 0.995502C26.3171 1.78139 25.8702 2.52652 25.2938 3.23421L25.2913 3.23747C25.2895 3.24092 25.287 3.24592 25.2838 3.25213C25.2676 3.28372 25.2209 3.37785 25.1374 3.46875L25.1316 3.47445C23.6873 4.99504 22.9213 6.7629 22.58 8.71331C22.3367 10.2268 22.4194 11.79 22.7921 13.286C22.3843 13.0446 21.987 12.8352 21.6008 12.6622C21.36 11.3048 21.3367 9.90982 21.5567 8.54718L21.5583 8.54148C21.9257 6.44269 22.7588 4.49097 24.3504 2.80585C24.3519 2.80296 24.3548 2.79949 24.357 2.79527C24.372 2.76617 24.4124 2.68418 24.4835 2.60063C24.9424 2.03712 25.3098 1.44453 25.6108 0.817969Z" fill="#EEF2FF"/>
<path d="M15.1756 3.20978C15.1701 3.52945 15.1501 3.85323 15.1115 4.18133L15.1107 4.18621L15.1182 4.29941C15.1189 4.34466 15.1172 4.40141 15.1065 4.46147L15.1048 4.46962C14.7037 6.50602 15.0094 8.39972 15.7737 10.2289L15.9343 10.5823C16.2495 11.2431 16.6325 11.8735 17.0716 12.4651C16.7651 12.616 16.4747 12.8011 16.1955 13.0124C15.6497 12.2695 15.1848 11.4697 14.8187 10.6263L14.817 10.6198C13.9923 8.64903 13.6422 6.5617 14.0799 4.30674L14.0724 4.1968C14.0718 4.15901 14.0747 4.1137 14.0815 4.06487C14.0864 4.02358 14.0898 3.98224 14.094 3.94109C14.4512 3.68352 14.8121 3.43937 15.1756 3.20978Z" fill="#EEF2FF"/>
<path d="M23.7031 0.75119C23.4706 1.50274 23.1523 2.2322 22.7222 2.94511L22.7189 2.94918C22.7176 2.95265 22.7159 2.95741 22.7139 2.96303C22.7022 2.99683 22.6709 3.09766 22.6008 3.19919L22.5958 3.20489C21.3834 4.9053 20.8753 6.75711 20.8137 8.73204C20.7909 10.0363 21.0079 11.3451 21.431 12.5881C21.0121 12.4098 20.6081 12.2737 20.223 12.1793C19.9129 11.0522 19.7567 9.88449 19.7771 8.71575L19.7779 8.70924C19.8431 6.58059 20.3914 4.53434 21.728 2.64868C21.7291 2.6458 21.7307 2.64216 21.7322 2.63809C21.7426 2.60804 21.7712 2.52126 21.8295 2.4288L21.9552 2.21217C22.2099 1.76208 22.4149 1.30223 22.5833 0.830999C22.9597 0.791501 23.3331 0.76482 23.7031 0.75119Z" fill="#EEF2FF"/>
<path d="M17.8644 1.84489C17.8149 2.36681 17.7232 2.8914 17.5824 3.42233L17.5799 3.42803C17.5797 3.43166 17.5802 3.43682 17.5799 3.44269C17.5782 3.4778 17.575 3.58226 17.5367 3.6984L17.5333 3.70736C16.8466 5.6692 16.8817 7.5853 17.3786 9.50081L17.4867 9.87379C17.7232 10.6294 18.0433 11.36 18.4343 12.0539C18.0688 12.0994 17.7258 12.1897 17.401 12.3185C16.9656 11.5075 16.619 10.6509 16.3761 9.76467L16.3736 9.75815C15.8372 7.69433 15.7884 5.57932 16.5425 3.40604L16.5508 3.29692C16.5556 3.25931 16.5645 3.21424 16.5782 3.16662C16.6532 2.88384 16.7125 2.60263 16.7579 2.32211C17.124 2.14389 17.4931 1.98478 17.8644 1.84489Z" fill="#EEF2FF"/>
<path d="M20.7197 1.11033C20.5916 1.74685 20.4023 2.37782 20.1348 3.00782L20.1324 3.01352C20.1316 3.01713 20.1301 3.02242 20.129 3.02818C20.1223 3.06306 20.1047 3.1659 20.0508 3.27493L20.0467 3.28389C19.0866 5.13528 18.8487 7.03974 19.0699 9.00648C19.205 10.0747 19.5015 11.1229 19.936 12.1158C19.7951 12.0883 19.6569 12.0668 19.5217 12.0514C19.2645 12.0226 19.0177 12.0142 18.7804 12.0245C18.4173 11.0911 18.1641 10.1166 18.0392 9.12375L18.0383 9.11724C17.8004 7.00158 18.0524 4.90235 19.1066 2.8539C19.1073 2.85021 19.1095 2.84454 19.1107 2.83843C19.1169 2.80615 19.1328 2.71745 19.1773 2.61855C19.3567 2.1959 19.4974 1.7714 19.6057 1.34324C19.9796 1.25938 20.3508 1.18012 20.7197 1.11033Z" fill="#EEF2FF"/>
</svg>
