<svg width="65" height="65" viewBox="0 0 65 65" fill="none" xmlns="http://www.w3.org/2000/svg">
<mask id="mask0_2004_604" style="mask-type:alpha" maskUnits="userSpaceOnUse" x="0" y="0" width="65" height="65">
<path d="M62.5878 30.0878L34.9122 2.41218C33.58 1.07997 31.42 1.07997 30.0878 2.41218L2.41218 30.0878C1.07997 31.42 1.07997 33.58 2.41218 34.9122L30.0878 62.5878C31.42 63.92 33.58 63.92 34.9122 62.5878L62.5878 34.9122C63.92 33.58 63.92 31.42 62.5878 30.0878Z" stroke="#000BFF" stroke-width="1.90661" stroke-miterlimit="10" stroke-linejoin="bevel"/>
<path d="M31.9457 59.07C25.1839 48.56 10.539 45.9285 3.71164 35.484C2.59033 33.793 3.01987 31.0937 4.45768 29.8006C13.2948 21.8361 22.1319 13.8761 30.9691 5.91164C32.4091 4.61625 34.1273 4.96892 35.0564 6.5582C40.7579 16.3833 53.54 19.1278 59.2958 28.894C60.2385 30.4698 59.8474 33.1125 58.6198 34.4848C51.0577 42.9195 43.4957 51.3587 35.9336 59.7935C34.7015 61.1702 33.0512 60.7723 31.9434 59.0678L31.9457 59.07Z" stroke="#000BFF" stroke-width="1.72072" stroke-miterlimit="10" stroke-linejoin="bevel"/>
<path d="M33.6007 55.4391C28.8487 44.3119 10.1933 47.088 5.18131 36.2162C4.21825 34.2223 5.15645 30.8787 6.70051 29.6285C14.9928 22.869 23.2828 16.1072 31.5729 9.34994C33.1237 8.09299 34.4982 8.72147 35.0951 10.4939C38.3098 20.1019 52.7422 18.4877 56.1581 27.89C56.8115 29.6059 56.0406 32.6963 54.917 34.1138C48.8583 41.7053 42.7996 49.2922 36.7409 56.8837C35.6082 58.3102 34.496 57.5054 33.603 55.4413L33.6007 55.4391Z" stroke="#000BFF" stroke-width="1.53482" stroke-miterlimit="10" stroke-linejoin="bevel"/>
<path d="M35.0185 51.7338C31.7517 40.731 10.7203 47.4973 6.8839 37.0641C5.98639 34.8554 7.50785 30.7748 9.16496 29.5608C16.7496 23.9429 24.3343 18.325 31.919 12.7117C33.5806 11.4932 34.6974 12.3342 35.0456 14.206C36.653 22.9301 51.1238 18.7907 53.1449 27.1011C53.6264 28.8441 52.4938 32.3369 51.4651 33.8132C46.7493 40.4958 42.0335 47.1785 37.3221 53.8612C36.2777 55.3487 35.7374 54.1257 35.023 51.7338L35.0185 51.7338Z" stroke="#000BFF" stroke-width="1.35131" stroke-miterlimit="10" stroke-linejoin="bevel"/>
<path d="M36.1419 48.0016C33.7862 37.9189 12.2145 47.0566 8.87995 37.9528C7.88976 35.6875 10.0668 30.7705 11.846 29.5881C18.5671 25.0554 25.2837 20.5227 32.0048 15.9899C33.7772 14.8098 34.7154 15.8068 34.903 17.6855C35.64 25.0102 48.8403 19.8761 50.2126 26.5656C50.6466 28.2068 49.1885 32.0478 48.2435 33.5896C44.7145 39.3069 41.1833 45.022 37.652 50.7416C36.6867 52.2992 36.7523 50.6512 36.1419 48.0016Z" stroke="#000BFF" stroke-width="1.16542" stroke-miterlimit="10" stroke-linejoin="bevel"/>
<path d="M36.9112 44.303C34.8901 35.9383 14.7449 45.6978 11.2996 38.7574C9.96121 36.6866 12.8504 30.8585 14.7675 29.692C20.4622 26.1856 26.1547 22.677 31.8517 19.1684C33.7303 18.0312 34.5645 19.1322 34.6979 20.9114C35.1342 26.4885 46.0625 21.5738 47.3217 26.328C47.8575 27.7139 46.1303 31.8283 45.2532 33.4561C42.7483 38.1493 40.2412 42.8403 37.7363 47.5335C36.8343 49.1771 37.5487 47.0836 36.9112 44.303Z" stroke="#000BFF" stroke-width="0.979521" stroke-miterlimit="10" stroke-linejoin="bevel"/>
<path d="M37.2178 40.7538C35.0317 34.824 18.3069 43.4282 14.3371 39.2821C12.2346 37.8217 15.8495 31.0418 17.9384 29.8662C22.4485 27.3229 26.9564 24.7819 31.4688 22.2408C33.4537 21.1557 34.2427 22.3245 34.4552 23.8618C34.9684 27.5309 42.9713 23.7103 44.4023 26.4616C45.2207 27.4111 43.3081 31.6884 42.4739 33.4314C40.8326 37.0395 39.1936 40.6453 37.5546 44.2557C36.6955 46.0145 38.1175 43.435 37.2178 40.7538Z" stroke="#000BFF" stroke-width="0.793626" stroke-miterlimit="10" stroke-linejoin="bevel"/>
<path d="M36.8764 37.5323C34.3037 34.4758 22.7673 40.3785 18.3544 39.1623C16.8126 38.8729 16.6792 37.1796 17.6197 35.0591C18.4878 33.0018 20.432 30.5195 21.3679 30.0945C24.5352 28.46 27.7002 26.8233 30.8675 25.1888C32.9496 24.1692 33.7453 25.3764 34.2201 26.4842C34.9548 28.3176 39.7769 26.0637 41.3526 27.0607C42.6774 27.341 40.7355 31.5979 39.899 33.5195C38.9653 35.9859 38.0317 38.4479 37.098 40.9143C36.248 42.8269 38.468 39.6935 36.8764 37.5368V37.5323Z" stroke="#000BFF" stroke-width="0.610115" stroke-miterlimit="10" stroke-linejoin="bevel"/>
<path d="M35.4974 35.0363C33.0468 34.5616 27.6911 36.9919 24.0378 37.7243C21.4945 38.3686 20.441 37.4553 21.178 35.4749C21.7703 33.6257 24.1486 30.7093 25.0732 30.3725C26.7349 29.5835 28.3987 28.7968 30.0604 28.0078C32.2035 27.099 33.0852 28.3017 34.0912 28.6837C34.8463 29.1042 36.7679 28.3582 38.0068 28.2949C38.8252 28.2452 39.2276 28.6883 38.9291 29.891C38.7008 31.01 37.7671 32.8887 37.5094 33.7342C37.1206 34.9956 36.7363 36.2571 36.3474 37.5186C35.4612 39.6391 38.6172 35.8547 35.4929 35.0363L35.4974 35.0363Z" stroke="#000BFF" stroke-width="0.424221" stroke-miterlimit="10" stroke-linejoin="bevel"/>
<path d="M32.1638 34.1752C29.0078 35.3688 25.662 36.5534 25.6484 35.2558C25.2618 34.2995 28.2075 30.861 29.0666 30.6756C31.1374 30.0561 32.3921 31.0124 34.2888 30.2415C35.1072 30.124 36.2828 29.6537 36.3393 30.4834C36.5292 31.1481 35.6023 33.1149 35.3062 34.0847C34.3951 36.4472 38.4644 32.075 32.166 34.1729L32.1638 34.1752Z" stroke="#000BFF" stroke-width="0.238326" stroke-miterlimit="10" stroke-linejoin="bevel"/>
<circle cx="32.4996" cy="32.554" r="11.19" transform="rotate(45 32.4996 32.554)" fill="#000BFF"/>
</mask>
<g mask="url(#mask0_2004_604)">
<path d="M61.8432 28.1664C63.3599 29.683 64.1182 30.4421 64.4024 31.3166C64.6522 32.0857 64.6523 32.9146 64.4024 33.6837C64.1181 34.5581 63.3592 35.3166 61.8425 36.8332L37.332 61.3438C35.8157 62.8601 35.0575 63.6186 34.1832 63.9029C33.4141 64.1528 32.5852 64.1526 31.8161 63.9029C30.9416 63.6187 30.1825 62.8604 28.6658 61.3438L4.15534 36.8332C2.63853 35.3164 1.88038 34.5576 1.59622 33.683C1.34634 32.9138 1.34629 32.0851 1.59622 31.3159C1.88045 30.4416 2.63893 29.6835 4.15534 28.167L28.6658 3.65655C30.1826 2.13978 30.9409 1.38091 31.8154 1.09674C32.5846 0.846794 33.4133 0.846807 34.1825 1.09674C35.0571 1.38089 35.8159 2.13905 37.3327 3.65585L61.8432 28.1664ZM39.4665 25.5043C35.6185 21.6567 29.3801 21.6572 25.5322 25.505C21.6844 29.3529 21.6838 35.5913 25.5315 39.4393C29.3795 43.2873 35.6185 43.2872 39.4665 39.4393C43.3145 35.5913 43.3145 29.3523 39.4665 25.5043Z" fill="#171421"/>
</g>
</svg>
